<svg xmlns="http://www.w3.org/2000/svg" width="162.768" height="40" viewBox="0 0 162.768 40">
  <g id="Grupo_1" data-name="Grupo 1" transform="translate(-118.684 -328.333)">
    <g id="social-media_2_" data-name="social-media (2)" transform="translate(118.684 331.186)">
      <path id="Caminho_1" data-name="Caminho 1" d="M274.573,7.193,263.644,0,256,6.433l11.018,6.856Z" transform="translate(-237.427)" fill="#1e88e5"/>
      <path id="Caminho_2" data-name="Caminho 2" d="M10.928,0,0,7.19l7.557,6.1L18.573,6.433Z" fill="#1e88e5"/>
      <path id="Caminho_3" data-name="Caminho 3" d="M18.573,190.025l-7.644,6.433L0,189.266l7.555-6.1,11.019,6.857,11.017-6.859,7.557,6.1-10.927,7.194Z" transform="translate(0 -169.878)" fill="#1e88e5"/>
      <path id="Caminho_4" data-name="Caminho 4" d="M115.806,325.3a1.151,1.151,0,0,1-.636.19,1.171,1.171,0,0,1-.748-.272l-6.814-5.735-6.813,5.735a1.165,1.165,0,0,1-1.386.081L96,323.062v3.429l11.632,6.965,11.587-6.965v-3.432Z" transform="translate(-89.035 -296.309)" fill="#1e88e5"/>
    </g>
    <text id="nextbox" transform="translate(166.452 358.333)" fill="#4c4c4c" font-size="29" font-family="Poppins-Medium, Poppins" font-weight="500"><tspan x="0" y="0">nextbox</tspan></text>
  </g>
</svg>

